<svg fill="none" height="160" viewBox="0 0 520 160" width="520" xmlns="http://www.w3.org/2000/svg" xmlns:xlink="http://www.w3.org/1999/xlink"><clipPath id="a"><path d="m47 61h424v39h-424z"/></clipPath><g clip-path="url(#a)" fill="#fff"><path d="m469.503 68.8414c.419 0 .778-.1479 1.077-.4438s.448-.651.448-1.0653v-4.3202c0-.3846-.149-.7101-.418-1.006-.3-.2959-.659-.4735-1.077-.4735h-23.365c-.419 0-.778.148-1.077.4439s-.449.651-.449 1.0652v4.3202c0 .3847.15.7102.419 1.0061.299.2959.658.4734 1.077.4734h7.689v29.1465c0 .4142.149.7693.448 1.0652.3.2959.659.4439 1.077.4439h4.967c.418 0 .777-.148 1.076-.4439.3-.2959.449-.651.449-1.0652v-29.1465h7.689zm-42.272-7.8414c-3.619 0-6.94.8581-9.962 2.6039-3.021 1.7459-5.414 4.1131-7.18 7.1017-1.765 2.9886-2.632 6.2732-2.632 9.8536s.867 6.8353 2.632 9.7944c1.766 2.959 4.159 5.2966 7.21 7.0425 3.052 1.7458 6.372 2.6039 9.932 2.6039 5.236 0 9.663-1.7458 13.313-5.2671.299-.2959.479-.6805.479-1.1244 0-.3847-.15-.7102-.419-.9765l-3.321-3.3733c-.568-.5622-1.286-.5622-1.974-.0296-2.453 1.953-5.086 2.8999-7.868 2.8999-2.154 0-4.099-.5326-5.864-1.5979-1.765-1.0652-3.141-2.4856-4.128-4.2906s-1.496-3.758-1.496-5.8589c0-3.2549 1.107-6.0364 3.321-8.374 2.213-2.3081 4.906-3.4621 8.107-3.4621 1.436 0 2.842.2663 4.248.799 1.406.5326 2.633 1.2723 3.65 2.1896.658.5918 1.376.5918 2.004 0l3.261-3.3437c.299-.2959.449-.6509.449-1.0652s-.18-.7989-.539-1.0949c-1.914-1.6866-3.949-2.959-6.043-3.7875s-4.487-1.2428-7.18-1.2428zm-39.16 22.9029h12.715c.418 0 .777-.148 1.077-.4439.299-.2959.448-.651.448-1.0652v-4.3794c0-.3847-.149-.7102-.419-1.0061-.299-.2959-.658-.4734-1.077-.4734h-12.714v-7.6935h15.347c.419 0 .778-.1479 1.077-.4438s.449-.651.449-1.0653v-4.3202c0-.3846-.15-.7101-.419-1.006-.299-.2959-.658-.4735-1.077-.4735h-21.749c-.419 0-.778.148-1.077.4439s-.449.651-.449 1.0652v34.9462c0 .4142.15.7693.449 1.0652s.658.4439 1.077.4439h21.749c.419 0 .778-.148 1.077-.4439s.449-.651.449-1.0652v-4.3202c0-.3847-.15-.7102-.419-1.0061-.299-.2959-.658-.4734-1.077-.4734h-15.347v-8.2853zm-39.728 14.1145v-22.7549h-.479l-.239.3255 21.928 23.8794c.359.3551.778.5326 1.257.5326h.748c.359 0 .718-.1184 1.017-.3847.329-.2663.508-.6214.508-1.0652v-35.538c0-.3846-.149-.7101-.418-1.006-.3-.2959-.659-.4735-1.077-.4735h-4.907c-.419 0-.778.148-1.077.4439s-.448.651-.448 1.0652v21.8377h.478l.24-.3255-21.839-23.0213c-.359-.3551-.778-.5326-1.257-.5326h-.807c-.389 0-.748.1184-1.047.3847-.3.2663-.449.6214-.449 1.0356v35.5676c0 .4142.149.7693.449 1.0652.299.2959.658.4439 1.077.4439h4.876c.419 0 .778-.148 1.077-.4439s.449-.651.449-1.0652zm-39.669 0v-22.7549h-.479l-.239.3255 21.929 23.8794c.359.3551.777.5326 1.256.5326h.748c.359 0 .718-.1184 1.017-.3847.329-.2663.509-.6214.509-1.0652v-35.538c0-.3846-.15-.7101-.419-1.006-.299-.2959-.658-.4735-1.077-.4735h-4.906c-.419 0-.778.148-1.077.4439-.3.2959-.449.651-.449 1.0652v21.8377h.479l.239-.3255-21.839-23.0213c-.359-.3551-.778-.5326-1.256-.5326h-.808c-.389 0-.748.1184-1.047.3847s-.449.6214-.449 1.0356v35.5676c0 .4142.15.7693.449 1.0652s.658.4439 1.077.4439h4.876c.419 0 .778-.148 1.077-.4439s.449-.651.449-1.0652zm-44.276-17.4286c0-2.1009.539-4.0539 1.586-5.8589 1.077-1.805 2.483-3.2549 4.278-4.2906s3.739-1.5683 5.863-1.5683 4.099.5326 5.894 1.5683c1.825 1.0653 3.261 2.4856 4.308 4.2906s1.585 3.758 1.585 5.8589-.538 4.0242-1.585 5.7997c-1.077 1.7754-2.513 3.1957-4.308 4.2314-1.825 1.0356-3.77 1.5683-5.894 1.5683-3.26 0-6.013-1.1245-8.316-3.4325-2.304-2.2785-3.441-5.0008-3.441-8.1965zm-5.295 9.7944c1.765 2.959 4.129 5.2966 7.12 7.0424 2.992 1.7459 6.313 2.6044 9.932 2.6044 3.62 0 6.941-.8585 9.932-2.6044 3.022-1.7458 5.385-4.0834 7.15-7.0424 1.765-2.9591 2.633-6.2436 2.633-9.7944 0-3.5805-.868-6.865-2.633-9.8536s-4.128-5.3558-7.15-7.1017c-3.021-1.7754-6.342-2.6335-9.932-2.6335-3.619 0-6.91.8581-9.932 2.6039-2.991 1.7459-5.385 4.1131-7.12 7.1017-1.765 2.9886-2.632 6.2732-2.632 9.8536s.867 6.8353 2.632 9.7944zm-17.77-29.3832c-3.62 0-6.94.8581-9.962 2.6039-3.021 1.7459-5.415 4.1131-7.18 7.1017s-2.632 6.2732-2.632 9.8536.867 6.8353 2.632 9.7944c1.765 2.959 4.159 5.2966 7.21 7.0425 3.051 1.7458 6.372 2.6039 9.932 2.6039 5.235 0 9.663-1.7458 13.313-5.2671.299-.2959.478-.6805.478-1.1244 0-.3847-.149-.7102-.418-.9765l-3.321-3.3733c-.569-.5622-1.286-.5622-1.975-.0296-2.453 1.953-5.055 2.8999-7.867 2.8999-2.154 0-4.099-.5326-5.864-1.5979-1.765-1.0652-3.141-2.4856-4.128-4.2906-.988-1.805-1.496-3.758-1.496-5.8589 0-3.2549 1.107-6.0364 3.32-8.374 2.214-2.3081 4.907-3.4621 8.108-3.4621 1.436 0 2.842.2663 4.248.799 1.406.5326 2.632 1.2723 3.65 2.1896.658.5918 1.376.5918 2.004 0l3.261-3.3437c.299-.2959.448-.6509.448-1.0652s-.179-.7989-.538-1.0949c-1.915-1.6866-3.949-2.959-6.043-3.7875s-4.487-1.2428-7.18-1.2428z"/><path d="m189.729 80.8847h10.83c2.154 0 4.039-.7694 5.654-2.3377 1.616-1.5682 2.393-3.462 2.393-5.7109 0-2.1009-.807-3.9355-2.393-5.4742-1.615-1.5387-3.47-2.308-5.654-2.308h-10.83zm-4.427 17.7246v-36.5736c0-.2959.09-.5327.299-.7398s.449-.2959.748-.2959h14.479c3.351 0 6.223 1.154 8.616 3.4325 2.393 2.2784 3.59 5.0599 3.59 8.3444 0 2.5152-.778 4.7641-2.304 6.7762-1.525 2.0122-3.53 3.5213-5.983 4.4977l7.659 14.0258s.179.3255.179.5622c0 .296-.089.5327-.269.7398-.179.2071-.479.2959-.838.2959h-2.692c-.509 0-.927-.2663-1.227-.8285l-7.269-14.3217h-10.68v14.085c0 .2959-.09.5326-.299.7397-.21.2071-.449.2959-.748.2959h-2.184c-.299 0-.539-.0888-.748-.2959s-.299-.4438-.299-.7397zm-31.921 0v-36.5736c0-.2959.09-.5327.3-.7398.209-.2071.448-.2959.747-.2959h22.019c.299 0 .538.1184.748.3255.209.2071.299.4734.299.7102v1.6274c0 .2959-.09.5327-.299.7398-.21.2071-.449.2959-.748.2959h-18.788v13.4932h16.035c.3 0 .539.0887.748.2959.21.2071.299.4438.299.7397v1.5979c0 .2959-.089.5326-.299.7398-.209.2071-.448.2959-.748.2959h-16.035v14.0849h18.788c.299 0 .538.0888.748.2959.209.2072.299.4439.299.7398v1.5979c0 .2959-.09.5326-.299.7397-.21.2072-.449.2959-.748.2959h-22.019c-.299 0-.538-.0887-.747-.2959-.21-.2071-.3-.4438-.3-.7397zm-28.599-17.0736h8.885c2.333 0 4.338-.799 6.013-2.3673 1.645-1.5978 2.483-3.61 2.483-6.066 0-2.3672-.808-4.261-2.453-5.7109-1.646-1.4499-3.65-2.1897-6.043-2.1897h-8.885zm-4.248 17.0736v-36.5736c0-.2959.089-.5327.299-.7398.209-.2071.478-.2959.778-.2959h12.355c3.44 0 6.372 1.1836 8.825 3.5804s3.68 5.2671 3.68 8.6108c0 3.4325-1.227 6.3619-3.68 8.7883s-5.385 3.6396-8.765 3.6396h-9.214v12.9902c0 .2959-.12.5326-.329.7397-.21.2071-.479.2959-.718.2959h-2.124c-.3 0-.539-.0888-.748-.2959-.21-.2071-.3-.4438-.3-.7397zm-23.305 0v-17.5471l-13.4622-18.4643s-.1795-.3255-.1795-.5622c0-.2959.0898-.5327.2693-.7398.2094-.2071.4786-.2959.8077-.2959h2.6326c.3291 0 .6282.1775.8975.503l11.2783 15.4166 11.2783-15.4166c.269-.3255.568-.503.898-.503h2.632c.329 0 .598.0888.778.2663.179.1776.269.4143.269.7102 0 .2071-.06.4142-.179.6214l-13.642 18.4051v17.6358c0 .296-.09.5327-.299.7398-.21.2071-.449.2959-.748.2959h-2.1839c-.2992 0-.5385-.0888-.7479-.2959s-.2992-.4438-.2992-.7398zm-50.229 0v-36.5736c0-.2664.1197-.5327.3291-.7398.2393-.2071.4786-.2959.718-.2959h2.1838c.2992 0 .5385.1184.7479.3255s.2992.4734.2992.7102v16.1563h22.6764v-16.1563c0-.2959.0897-.5327.2991-.7398.2393-.2071.5086-.2959.8077-.2959h2.1839c.2992 0 .5385.1184.7479.3255s.2992.4734.2992.7102v36.5736c0 .2959-.1197.5326-.3291.7397s-.4787.2959-.718.2959h-2.1839c-.2991 0-.5384-.1183-.7479-.3255-.2094-.2071-.2991-.4734-.2991-.7101v-16.7186h-22.7063v16.7481c0 .296-.0897.5327-.2992.7398-.2094.2071-.4487.2959-.7479.2959h-2.2137c-.2992 0-.5385-.0888-.7479-.2959-.2095-.2071-.2992-.4734-.2992-.7693z"/></g></svg>
