<svg xmlns="http://www.w3.org/2000/svg" width="32" height="32" fill="none" viewBox="0 0 32 32">
    <circle cx="16" cy="16" r="16" fill="#313131"/>
    <path fill="#fff" d="M14.16 15.378s1.786-.15 1.786-2.24c0-2.092-1.44-3.138-3.275-3.138H6.566v11.752h6.105s3.721.1 3.721-3.486c-.05 0 .15-2.888-2.233-2.888zM9.245 12.09h3.425s.843 0 .843 1.245-.496 1.395-1.042 1.395H9.246v-2.64zm3.226 7.57H9.246v-3.138h3.425s1.24 0 1.24 1.594c-.05 1.344-.943 1.493-1.439 1.543zM23.638 10.697h-4.814v1.444h4.814v-1.444zM21.305 12.988c-4.516 0-4.516 4.531-4.516 4.531s-.298 4.482 4.516 4.482c0 0 4.02.249 4.02-3.137H23.24s.05 1.244-1.886 1.244c0 0-2.084.15-2.084-2.041h6.055c.05 0 .744-5.08-4.02-5.08zm-1.985 3.535s.248-1.792 2.034-1.792c1.787 0 1.787 1.792 1.787 1.792H19.32z"/>
</svg>
