<svg xmlns="http://www.w3.org/2000/svg" width="32" height="32" fill="none" viewBox="0 0 32 32">
    <circle cx="16" cy="16" r="16" fill="#313131"/>
    <path stroke="#fff" stroke-linecap="round" stroke-linejoin="round" stroke-width="2" d="M20 8h-8c-2.21 0-4 1.79-4 4v8c0 2.21 1.79 4 4 4h8c2.21 0 4-1.79 4-4v-8c0-2.21-1.79-4-4-4z"/>
    <path stroke="#fff" stroke-linecap="round" stroke-linejoin="round" stroke-width="2" d="M19.201 15.496c.1.666-.015 1.346-.325 1.943-.31.598-.8 1.082-1.401 1.385-.602.302-1.283.408-1.947.3-.665-.106-1.279-.42-1.755-.896-.476-.476-.79-1.09-.896-1.754-.107-.665-.002-1.346.3-1.947.303-.601.788-1.092 1.385-1.402.598-.31 1.277-.424 1.943-.325.68.1 1.308.417 1.794.903.485.485.802 1.114.902 1.793zM20.398 11.6h.008"/>
</svg>
