<svg xmlns="http://www.w3.org/2000/svg" width="32" height="32" fill="none" viewBox="0 0 32 32">
    <circle cx="16" cy="16" r="16" fill="#313131"/>
    <path fill="#fff" d="M10.995 13.99c1.102 0 1.995-.893 1.995-1.995S12.097 10 10.995 10 9 10.893 9 11.995s.893 1.995 1.995 1.995zM16.003 13.99c1.102 0 1.995-.893 1.995-1.995 0-1.101-.893-1.995-1.995-1.995s-1.995.894-1.995 1.995c0 1.102.893 1.995 1.995 1.995zM16.003 18.995c1.102 0 1.995-.893 1.995-1.995s-.893-1.995-1.995-1.995-1.995.893-1.995 1.995.893 1.995 1.995 1.995zM16.003 24c1.102 0 1.995-.894 1.995-1.995 0-1.102-.893-1.995-1.995-1.995s-1.995.893-1.995 1.994c0 1.102.893 1.995 1.995 1.995zM21.007 13.99c1.101 0 1.995-.893 1.995-1.995 0-1.101-.893-1.995-1.995-1.995s-1.995.894-1.995 1.995c0 1.102.893 1.995 1.995 1.995z"/>
</svg>
