<svg xmlns="http://www.w3.org/2000/svg" width="101" height="22" fill="none" viewBox="0 0 101 22">
    <path fill="#fff" d="M17.646.2h-3.84l-4.56 7.464L4.686.2H.846V17h3.84V7.232L9.03 14.36h.432l4.344-7.128V17h3.84V.2zM29.126 5v1.128c-.792-.912-1.968-1.464-3.576-1.464-3.144 0-5.736 2.76-5.736 6.336 0 3.576 2.592 6.336 5.736 6.336 1.608 0 2.784-.552 3.576-1.464V17h3.6V5h-3.6zm-2.856 8.928c-1.656 0-2.856-1.128-2.856-2.928s1.2-2.928 2.856-2.928S29.126 9.2 29.126 11s-1.2 2.928-2.856 2.928zm12.388-5.424c0-.432.384-.672 1.008-.672.792 0 1.272.432 1.608 1.056l3.072-1.656c-1.008-1.704-2.736-2.568-4.68-2.568-2.496 0-4.704 1.32-4.704 3.936 0 4.152 5.904 3.456 5.904 4.776 0 .48-.432.744-1.296.744-1.056 0-1.728-.504-2.04-1.416l-3.12 1.776c.936 1.944 2.76 2.856 5.16 2.856 2.592 0 4.992-1.176 4.992-3.936 0-4.44-5.904-3.528-5.904-4.896zm14.733-3.84c-1.584 0-2.784.576-3.432 1.464V.2h-3.6V17h3.6v-6.552c0-1.704.912-2.472 2.232-2.472 1.152 0 2.088.696 2.088 2.184V17h3.6V9.632c0-3.24-2.064-4.968-4.488-4.968zm7.08 6.888h9.12V8.096h-9.12v3.456zm18.36 5.784c3.696 0 6.48-2.16 6.48-5.76V.2h-3.84v11.04c0 1.272-.6 2.352-2.64 2.352s-2.64-1.08-2.64-2.352V.2h-3.84v11.376c0 3.6 2.784 5.76 6.48 5.76zM95.137 4.664c-1.608 0-2.784.552-3.576 1.464V5h-3.6v16.8h3.6v-5.928c.792.912 1.968 1.464 3.576 1.464 3.144 0 5.736-2.76 5.736-6.336 0-3.576-2.592-6.336-5.736-6.336zm-.72 9.264c-1.656 0-2.856-1.128-2.856-2.928s1.2-2.928 2.856-2.928S97.273 9.2 97.273 11s-1.2 2.928-2.856 2.928z"/>
</svg>
